<svg width="77" height="136" viewBox="0 0 77 136" fill="none" xmlns="http://www.w3.org/2000/svg">
<path d="M43.5851 1.48241C41.4913 3.22722 39.1799 4.6102 37.0066 6.22003C34.8397 7.82511 32.512 9.76711 30.6176 11.6615C29.7957 12.4834 28.9294 13.9329 27.9916 14.5853C26.2077 15.8263 25.0011 17.6088 23.7142 19.3094C22.0165 21.5528 20.1723 23.4927 18.7464 25.9285C18.2735 26.7365 17.8182 27.9532 17.1492 28.6222C16.7754 28.996 16.9191 28.3821 16.6754 28.9336C16.1228 30.1843 15.2923 31.3209 14.6991 32.5612C14.1887 33.6285 14.2989 35.2457 13.508 36.0806C12.173 37.4897 11.2646 39.4495 10.2729 41.1025C9.33437 42.6666 8.03682 44.373 7.49796 46.1244C7.08854 47.455 6.52468 48.8665 5.83302 50.0769C5.27518 51.0531 5.31782 52.4905 5.10207 53.5692C4.2684 57.7376 3.16851 61.7206 2.21889 65.9412C1.461 69.3096 1.9211 73.1551 1.9211 76.5941C1.9211 79.5375 2.57525 82.7688 3.26117 85.6497C3.35722 86.0531 3.38299 86.4029 3.38299 86.8138C3.38299 88.7477 3.83119 90.5821 4.19516 92.4719C4.40881 93.5812 4.78586 94.8969 4.84489 96.0183C4.90775 97.2127 6.79699 98.8444 7.41674 99.8084C8.31693 101.209 8.94582 102.969 9.96152 104.275C10.4702 104.929 10.41 104.484 10.4624 105.453C10.5766 107.566 11.8425 109.193 12.9936 110.867C14.4786 113.027 15.9506 115.314 17.4605 117.514C17.8102 118.023 17.75 118.98 18.0561 119.354C18.8955 120.38 20.0875 121.494 21.1694 122.278C22.5638 123.29 24.1101 124.273 25.6228 125.094C26.6208 125.636 27.8025 125.756 28.736 126.366C30.0495 127.225 31.3771 128.138 32.7292 128.911C33.2293 129.197 33.647 129.141 34.2723 129.209C35.4426 129.335 36.5616 129.751 37.7105 129.994C41.1439 130.719 44.493 131.216 47.9708 131.835C50.4684 132.279 53.2186 132.834 55.6593 133.067C56.7778 133.173 57.7292 134.02 58.7861 134.352C59.7372 134.651 60.9675 134.759 61.9671 134.759C64.1514 134.759 67.1762 135.069 68.9788 133.594C69.6414 133.052 70.7224 132.933 71.4694 132.457C71.9725 132.137 72.3362 131.845 72.8366 131.469C73.5392 130.942 74.7509 129.649 75.5032 129.398" stroke="black" stroke-width="2" stroke-linecap="round"/>
</svg>
